<svg xmlns="http://www.w3.org/2000/svg" width="512" height="512" viewBox="0 0 512 512">
  <defs>
    <linearGradient id="grad" x1="0%" y1="0%" x2="100%" y2="100%">
      <stop offset="0%" style="stop-color:#f97316;stop-opacity:1" />
      <stop offset="100%" style="stop-color:#f59e0b;stop-opacity:1" />
    </linearGradient>
  </defs>
  <rect width="512" height="512" x="0" y="0" rx="112" fill="url(#grad)" />
  <g transform="translate(48, 48) scale(17.333)" fill="none" stroke="white" stroke-width="2" stroke-linecap="round" stroke-linejoin="round">
    <path d="M20.2 6 3 11l-.9-2.4c-.3-1.1.3-2.2 1.3-2.5l13.5-4c1.1-.3 2.2.3 2.5 1.3Z"></path>
    <path d="m6.2 5.3 3.1 3.9"></path>
    <path d="m12.4 3.4 3.1 4"></path>
    <path d="M3 11h18v8a2 2 0 0 1-2 2H5a2 2 0 0 1-2-2Z"></path>
  </g>
</svg>
